<svg xmlns="http://www.w3.org/2000/svg" xmlns:xlink="http://www.w3.org/1999/xlink" width="500" zoomAndPan="magnify" viewBox="0 0 375 374.999991" height="500" preserveAspectRatio="xMidYMid meet" version="1.0"><defs><g/></defs><g fill="#222222" fill-opacity="1"><g transform="translate(91.516446, 225.713138)"><g><path d="M 4.183594 -104.609375 C 8.367188 -100.425781 7.53125 -88.917969 7.53125 -78.457031 L 7.53125 -1.570312 C 7.53125 -0.523438 7.636719 0 8.367188 0 C 9.625 0 12.554688 -5.859375 13.285156 -7.324219 C 21.027344 -22.804688 27.304688 -31.90625 34.835938 -44.773438 C 42.367188 -33.789062 47.597656 -26.464844 55.863281 -14.121094 C 59.105469 -9.308594 65.695312 0 70.191406 0 L 79.191406 0 L 79.191406 -0.523438 C 76.46875 -0.835938 69.878906 -6.589844 64.859375 -14.121094 C 54.921875 -28.976562 49.375 -36.613281 39.019531 -51.886719 C 42.15625 -57.117188 45.402344 -62.660156 49.0625 -68.9375 C 58.894531 -85.78125 71.34375 -102.203125 79.085938 -104.609375 L 57.746094 -104.609375 C 58.582031 -103.355469 59.210938 -102.519531 59.210938 -100.320312 C 59.210938 -90.488281 33.683594 -47.492188 21.550781 -27.511719 L 14.855469 -16.421875 L 14.855469 -78.457031 C 14.855469 -88.917969 14.019531 -100.425781 18.203125 -104.609375 Z M 4.183594 -104.609375 "/></g></g></g><g fill="#222222" fill-opacity="1"><g transform="translate(164.751073, 266.156877)"><g><path d="M 52.304688 -41.113281 L 45.402344 -26.152344 C 40.589844 -15.691406 35.882812 -4.183594 29.8125 0 L 44.667969 0 C 42.367188 -4.183594 48.75 -15.691406 53.558594 -26.152344 L 77.726562 -78.457031 C 82.539062 -88.917969 87.035156 -100.425781 93.101562 -104.609375 L 78.25 -104.609375 C 80.550781 -100.425781 74.378906 -88.917969 69.566406 -78.457031 L 53.140625 -42.996094 C 32.535156 -43.9375 4.917969 -71.03125 14.539062 -104.609375 L 5.019531 -104.609375 C -1.464844 -65.695312 31.382812 -42.578125 52.304688 -41.113281 Z M 52.304688 -41.113281 "/></g></g></g></svg>